HIERARCHY
ROOT Hips
{
	OFFSET 0.000000 0.000000 0.000000 
	CHANNELS 6 Xposition Yposition Zposition Yrotation Zrotation Xrotation 
	JOINT Lumbar
	{
		OFFSET 0.000000 0.000000 0.000000 
		CHANNELS 3 Zrotation Xrotation Yrotation
		JOINT Neck
		{
			OFFSET 0.000000 0.445665 0.000000 
			CHANNELS 3 Zrotation Xrotation Yrotation
			End Site
			{
				OFFSET 0.000000 0.227535 0.000000 
			}
		}
		JOINT RightShoulder
		{
			OFFSET 0.019635 0.377685 0.194865 
			CHANNELS 3 Zrotation Xrotation Yrotation
			JOINT RightElbow
			{
				OFFSET 0.000000 -0.243375 0.000000 
				CHANNELS 2 Zrotation Yrotation
				JOINT RightWrist
				{
					OFFSET 0.000000 -0.264825 0.000000 
					CHANNELS 2 Zrotation Xrotation
					End Site
					{
						OFFSET 0.006600 -0.176220 0.000990 
					}
				}
			}
		}
		JOINT LeftShoulder
		{
			OFFSET 0.019635 0.377685 -0.194865 
			CHANNELS 3 Zrotation Xrotation Yrotation
			JOINT LeftElbow
			{
				OFFSET 0.000000 -0.243375 0.000000 
				CHANNELS 2 Zrotation Yrotation
				JOINT LeftWrist
				{
					OFFSET 0.000000 -0.264825 0.000000 
					CHANNELS 2 Zrotation Xrotation
					End Site
					{
						OFFSET 0.006600 -0.176220 -0.000990 
					}
				}
			}
		}
	}
	JOINT RightHip
	{
		OFFSET 0.052140 -0.069960 0.075570 
		CHANNELS 3 Zrotation Xrotation Yrotation
		JOINT RightKnee
		{
			OFFSET 0.000000 -0.402270 0.000000 
			CHANNELS 1 Zrotation
			JOINT RightAnkle
			{
				OFFSET 0.000000 -0.404085 0.000000 
				CHANNELS 3 Zrotation Xrotation Yrotation
				End Site
				{
					OFFSET 0.204105 -0.089430 0.008415 
				}
			}
		}
	}
	JOINT LeftHip
	{
		OFFSET 0.052140 -0.069960 -0.075570 
		CHANNELS 3 Zrotation Xrotation Yrotation
		JOINT LeftKnee
		{
			OFFSET 0.000000 -0.402270 0.000000 
			CHANNELS 1 Zrotation
			JOINT LeftAnkle
			{
				OFFSET 0.000000 -0.404085 0.000000 
				CHANNELS 3 Zrotation Xrotation Yrotation
				End Site
				{
					OFFSET 0.204105 -0.089430 -0.008415 
				}
			}
		}
	}
}
MOTION
Frames: 14
Frame Time: 0.02
0 0.95578 0 180.04108 0 3.19346 8.5895 -0.66838 0.20496 -24.61963 3.16808 0.52022 16.91114 -12.62058 3.1037 10.81556 84.2049 1.47767 2.13616 18.96417 4.91868 -2.81147 8.12915 -74.49062 -4.51123 -1.45934 1.41915 4.81967 18.83122 -18.13485 9.72739 -9.2719 -13.07457 0.05848 -5.12804 -10.76804 -12.72322 6.8571 7.08684 10.96617
-0.00055 0.95573 -0.00011 179.9828 0 3.18713 8.64784 -0.66608 0.09983 -24.74349 3.12344 0.66844 17.04762 -12.65378 3.15618 10.79663 84.20152 1.44872 2.16042 19.09857 4.88363 -2.69193 8.12451 -74.49219 -4.50882 -1.44535 1.38731 4.83559 18.87881 -18.13338 9.74398 -9.24552 -13.07814 0.02412 -5.12312 -10.74995 -12.73673 6.87268 7.09916 11.01376
-0.0011 0.95568 -0.00022 179.92472 0 3.18085 8.70604 -0.66392 -0.00441 -24.86762 3.07908 0.8157 17.18404 -12.68684 3.20927 10.77826 84.19821 1.42 2.18413 19.23298 4.84887 -2.57257 8.12034 -74.49383 -4.5065 -1.43097 1.3556 4.85145 18.92623 -18.13212 9.76057 -9.21938 -13.0817 -0.01014 -5.11823 -10.73197 -12.75027 6.88828 7.11148 11.06118
-0.00165 0.95562 -0.00034 179.86666 0 3.17475 8.76379 -0.66211 -0.10581 -24.99059 3.03533 0.96018 17.3187 -12.7195 3.26488 10.76203 84.19563 1.39192 2.20543 19.36583 4.81514 -2.45269 8.11824 -74.49576 -4.50473 -1.41455 1.32415 4.8672 18.97375 -18.13133 9.77714 -9.19378 -13.0853 -0.04467 -5.11339 -10.71385 -12.76313 6.90372 7.12364 11.1083
-0.00219 0.95557 -0.00045 179.8082 0 3.16772 8.82334 -0.65822 -0.22187 -25.1154 2.98828 1.11893 17.45904 -12.7541 3.30664 10.73459 84.18978 1.3604 2.23896 19.50329 4.7762 -2.33548 8.10541 -74.49614 -4.50029 -1.40852 1.29137 4.8835 19.02116 -18.12765 9.79358 -9.16512 -13.08877 -0.07814 -5.10821 -10.696 -12.77848 6.91953 7.1363 11.15692
-0.00274 0.95552 -0.00056 179.75083 0 3.16264 8.87945 -0.65887 -0.30707 -25.23915 2.9483 1.24765 17.58975 -12.7847 3.37802 10.73082 84.19046 1.33622 2.24693 19.63336 4.74817 -2.21279 8.11512 -74.4998 -4.50136 -1.38083 1.26142 4.89867 19.06846 -18.13034 9.81042 -9.14307 -13.09246 -0.11357 -5.10381 -10.67789 -12.78931 6.93487 7.14812 11.2024
-0.00328 0.95548 -0.00069 179.69333 0 3.16328 8.9239 -0.67141 -0.30423 -25.34195 2.92685 1.29156 17.67885 -12.80316 3.53278 10.79512 84.21342 1.3323 2.17894 19.72851 4.75189 -2.07021 8.19106 -74.51315 -4.51924 -1.28772 1.23885 4.9104 19.11895 -18.14937 9.82789 -9.13877 -13.09709 -0.15761 -5.10125 -10.65575 -12.78119 6.94649 7.15591 11.23914
-0.00383 0.95544 -0.00083 179.63739 0 3.16586 8.96555 -0.68865 -0.27076 -25.44952 2.91247 1.3056 17.76349 -12.81766 3.71705 10.88278 84.24234 1.33586 2.08606 19.82131 4.76645 -1.92263 8.28907 -74.52978 -4.54234 -1.17375 1.21922 4.92101 19.16866 -18.17521 9.84601 -9.14132 -13.10176 -0.20311 -5.09956 -10.63371 -12.76969 6.95818 7.16319 11.27264
-0.00437 0.95541 -0.00096 179.58276 0 3.1673 9.00958 -0.70419 -0.25317 -25.5637 2.89578 1.33456 17.85701 -12.83488 3.88734 10.95821 84.26565 1.33589 2.00802 19.92181 4.77484 -1.78044 8.37455 -74.54447 -4.56213 -1.07272 1.19848 4.93241 19.21659 -18.19866 9.86399 -9.14095 -13.10637 -0.24586 -5.09763 -10.61399 -12.76391 6.97134 7.17181 11.30785
-0.0049 0.95537 -0.00109 179.5198 0 3.16969 9.04787 -0.71794 -0.22732 -25.63094 2.87623 1.35766 17.91176 -12.8488 4.06114 11.0409 84.30074 1.33615 1.91517 19.98474 4.78799 -1.6258 8.47075 -74.56085 -4.58614 -0.95674 1.17671 4.94282 19.27382 -18.21867 9.88075 -9.13941 -13.11171 -0.29726 -5.09494 -10.58515 -12.74046 6.97784 7.17569 11.34252
-0.00546 0.95533 -0.00122 179.47433 0 3.17071 9.09878 -0.73649 -0.21138 -25.80947 2.86315 1.38608 18.05854 -12.86793 4.23322 11.11348 84.3133 1.3381 1.84716 20.13737 4.79443 -1.49505 8.54964 -74.57473 -4.60229 -0.86742 1.15787 4.95479 19.3111 -18.24804 9.90091 -9.14237 -13.11483 -0.33119 -5.09415 -10.57425 -12.75301 6.99864 7.1894 11.37693
-0.00607 0.9553 -0.00134 179.47885 0 3.16626 9.17262 -0.76753 -0.23067 -26.18127 2.87667 1.43469 18.348 -12.90919 4.40534 11.15772 84.25706 1.33958 1.85395 20.42892 4.77397 -1.43899 8.5777 -74.57919 -4.59803 -0.85202 1.1456 4.9734 19.29672 -18.29651 9.92413 -9.15217 -13.11801 -0.31474 -5.09744 -10.62246 -12.86584 7.05518 7.2296 11.41698
-0.0067 0.95527 -0.00146 179.50063 0 3.16055 9.2606 -0.80313 -0.26107 -26.6811 2.89495 1.49005 18.74641 -12.95499 4.57229 11.19053 84.17887 1.34309 1.88625 20.82654 4.74719 -1.40601 8.58752 -74.58164 -4.58509 -0.86464 1.13638 4.99324 19.2616 -18.35494 9.95177 -9.16687 -13.11777 -0.28087 -5.10278 -10.68722 -13.01501 7.12666 7.27979 11.45602
-0.00735 0.95524 -0.00158 179.51303 0 3.15631 9.35171 -0.83644 -0.28591 -27.20256 2.9036 1.54344 19.17484 -12.99372 4.73394 11.22444 84.11413 1.34792 1.90717 21.25325 4.72741 -1.3572 8.60369 -74.58577 -4.5746 -0.86812 1.12625 5.01118 19.23398 -18.41242 9.98157 -9.18203 -13.11512 -0.25636 -5.1078 -10.73776 -13.14748 7.19395 7.326 11.49161
